<?xml version="1.0" encoding="UTF-8"?>
<svg xmlns="http://www.w3.org/2000/svg" version="1.1" xmlns:xlink="http://www.w3.org/1999/xlink" viewBox="0 0 1920 1080">
  <defs>
    <style>
      .cls-1 {
        fill: url(#linear-gradient-2);
      }

      .cls-2 {
        fill: url(#linear-gradient);
      }

      #cgbb_x5F_left2 {
        animation: float 5s infinite alternate;
      }

      #cgbb_x5F_left1 {
        animation: float 7.5s infinite alternate;
      }

      @keyframes float {
        from {
          transform: translateX(-3px);
          transform: translateY(-10px);    
        }
        to {
          transform: translateX(3px);
          transform: translateY(10px); 
        }
      }


    </style>
    <linearGradient id="linear-gradient" x1="203.03" y1="956.27" x2="591.33" y2="401.72" gradientUnits="userSpaceOnUse">
      <stop offset="0" stop-color="#a97b91"/>
      <stop offset=".17" stop-color="#c58f97"/>
      <stop offset=".32" stop-color="#d89d9b"/>
      <stop offset=".43" stop-color="#dfa29d"/>
      <stop offset=".58" stop-color="#e0a59f"/>
      <stop offset=".71" stop-color="#e4b0a7"/>
      <stop offset=".94" stop-color="#ecc8b6"/>
      <stop offset="1" stop-color="#efcfbb"/>
    </linearGradient>
    <linearGradient id="linear-gradient-2" x1="153.13" y1="984.23" x2="477.73" y2="520.64" xlink:href="#linear-gradient"/>
  </defs>

  <g>
    <g id="cgbb_x5F_left1">
      <path class="cls-2" d="M1007.93,705.6c-18.46-26.77-49.34-44.33-84.32-44.33-30.26,0-57.44,13.13-76.18,34-8.07-48.47-50.19-85.43-100.96-85.43-27.12,0-51.77,10.55-70.08,27.76-18.77-21.89-46.63-35.76-77.73-35.76-3.85,0-7.65.22-11.38.63.31-2.09.48-4.23.48-6.41,0-19.76-13.31-36.4-31.44-41.48.15-1.8.25-3.62.25-5.47,0-35.14-28.49-63.62-63.62-63.62-11.99,0-23.2,3.32-32.78,9.09-2.58-30.6-28.23-54.64-59.5-54.64-1.49,0-2.97.07-4.43.18.17-.93.27-1.88.27-2.86,0-8.41-6.56-15.23-14.65-15.23-1.01,0-2,.11-2.96.31.62-3.17.95-6.44.95-9.8,0-28.06-22.74-50.8-50.8-50.8-7.72,0-15.03,1.73-21.59,4.81-7.78-4.85-16.97-7.66-26.82-7.66-13.55,0-25.85,5.32-34.96,13.96l-19.03-8.63-10.48-12.94c8.48-9.08,13.67-21.26,13.67-34.65,0-28.06-22.74-50.8-50.8-50.8-9.15,0-17.73,2.43-25.14,6.67-7.81-8.27-18.33-13.77-30.06-14.96.13-1.35.2-2.72.2-4.11,0-22.49-17.54-40.73-39.17-40.73-3.8,0-7.48.57-10.95,1.63-4.49-18.48-19.62-32.54-38.23-34.74,4.29-5.13,6.9-11.82,6.9-19.15,0-9.66-4.51-18.22-11.46-23.53,0-.19.01-.38.01-.57,0-20.74-13.08-38.31-31.12-44.28v722.05h736.83c3.17.3,6.39.46,9.64.46s6.47-.16,9.64-.46h78.45c14.94,26.31,41.2,45.35,72.16,50.49,18.46,26.77,49.34,44.33,84.32,44.33,56.53,0,102.36-45.83,102.36-102.36,0-50.78-36.97-92.91-85.47-100.96Z"/>
    </g>
    <g id="cgbb_x5F_left2">
      <path class="cls-1" d="M761.02,744.46c-17.34,0-33.66,3.69-47.9,10.2-14.23-37.66-50.96-64.48-94.03-64.48-8.76,0-17.25,1.11-25.35,3.19.03-1.06.06-2.13.06-3.19,0-54.76-44.93-99.16-100.34-99.16,0-59.87-44.93-108.4-100.34-108.4-19.19,0-37.12,5.82-52.36,15.91-2.14-31.68-26.59-56.67-56.46-56.67-19.9,0-37.39,11.1-47.49,27.87-5.18-3.92-10.99-6.93-17.24-8.82,4.33-8.64,6.78-18.54,6.78-29.05,0-33.79-25.36-61.18-56.63-61.18-14.63,0-27.97,6-38.02,15.84-10.26-19.4-30.64-32.63-54.11-32.63-9.25,0-18.01,2.06-25.87,5.74-5.44-21.58-22.57-37.35-42.89-37.35-3.02,0-5.97.35-8.82,1.02v553.71h572.18c14,7.33,29.97,11.49,46.91,11.49s32.91-4.16,46.91-11.49l8.33-5.12c17.47,24.97,49.75,41.73,86.68,41.73,55.52,0,100.53-37.87,100.53-84.58s-45.01-84.58-100.53-84.58Z"/>
    </g>
  </g>
</svg>