<?xml version="1.0" encoding="UTF-8"?>
<svg xmlns="http://www.w3.org/2000/svg" version="1.1" xmlns:xlink="http://www.w3.org/1999/xlink" viewBox="0 0 1920 1080">
  <defs>
    <style>
      .cls-1 {
        fill: #fff;
      }

      .cls-2 {
        fill: url(#linear-gradient);
      }

      #cgbb_x5F_right1 {
        animation: float 6s infinite alternate;
      }

      @keyframes float {
        from {
          transform: translateX(-5px);
          transform: translateY(-6px);    
        }
        to {
          transform: translateX(3px);
          transform: translateY(12px); 
        }
      }


    </style>
    <linearGradient id="linear-gradient" x1="1418.46" y1="393.59" x2="1720.4" y2="916.58" gradientUnits="userSpaceOnUse">
      <stop offset=".09" stop-color="#efcfbb"/>
      <stop offset=".14" stop-color="#ecc8b6"/>
      <stop offset=".34" stop-color="#e4b0a7"/>
      <stop offset=".45" stop-color="#e0a59f"/>
      <stop offset=".57" stop-color="#dfa29d"/>
      <stop offset=".68" stop-color="#d89d9b"/>
      <stop offset=".83" stop-color="#c58f97"/>
      <stop offset="1" stop-color="#a97b91"/>
    </linearGradient>
  </defs>
  <!-- Generator: Adobe Illustrator 28.6.0, SVG Export Plug-In . SVG Version: 1.2.0 Build 709)  -->
  <g>
    <g id="cgbb_x5F_right1">
      <path class="cls-2" d="M1920,0h-18.71c.06,1.6.19,3.21.42,4.83.03.19.06.37.09.56-6.16,6.22-9.46,15.31-8.13,24.88,1,7.26,4.5,13.54,9.46,18.03-18.12,4.73-31.19,20.73-33.11,39.65-3.59-.56-7.31-.63-11.07-.11-21.43,2.96-36.31,23.43-33.22,45.71.19,1.37.45,2.72.76,4.04-11.46,2.78-21.12,9.68-27.73,18.94-7.93-3.18-16.76-4.41-25.82-3.16-27.79,3.84-47.2,29.49-43.36,57.28,1.84,13.27,8.65,24.62,18.29,32.45l-8.61,14.25-17.67,11.16c-10.21-7.32-23.12-10.9-36.54-9.04-9.75,1.35-18.47,5.39-25.51,11.26-6.91-2.15-14.39-2.87-22.04-1.81-27.79,3.84-47.2,29.49-43.36,57.28.46,3.32,1.24,6.52,2.29,9.57-.97-.07-1.97-.04-2.97.1-8.02,1.11-13.58,8.76-12.43,17.1.13.97.36,1.9.66,2.8-1.47.09-2.94.22-4.41.43-30.98,4.29-53.09,31.61-51.45,62.28-10.27-4.4-21.83-6.15-33.71-4.51-34.81,4.82-59.12,36.94-54.31,71.74.25,1.83.6,3.62,1,5.38-17.27,7.52-28.17,25.83-25.46,45.4.3,2.16.75,4.25,1.35,6.28-3.76.1-7.55.41-11.36.93-30.81,4.26-56.5,21.82-72.09,46.08-20.5-14.54-46.36-21.61-73.22-17.9-50.29,6.96-86.95,49.34-88.3,98.46-21.42-18.11-50.15-27.39-80.12-23.24-34.65,4.79-62.83,26.41-77.45,55.46-46.93,14.62-77.78,61.43-70.82,111.72,7.75,56,59.42,95.11,115.42,87.37,34.65-4.79,62.83-26.41,77.45-55.46,29.97-9.34,53.37-31.79,64.56-59.9l77.71-10.75c3.18-.14,6.39-.42,9.61-.87,3.22-.45,6.38-1.05,9.49-1.77l624.46-86.39V0Z"/>
      <ellipse class="cls-1" cx="321.42" cy="843.2" rx="4" ry="2.2"/>
      <ellipse class="cls-1" cx="1751.58" cy="843.2" rx="4" ry="2.2"/>
      <ellipse class="cls-1" cx="1598.58" cy="843.2" rx="4" ry="2.2"/>
    </g>
  </g>
</svg>