<?xml version="1.0" encoding="UTF-8"?>
<svg xmlns="http://www.w3.org/2000/svg" version="1.1" xmlns:xlink="http://www.w3.org/1999/xlink" viewBox="0 0 1920 1080">
  <defs>
    <style>
      .cls-1 {
        fill: url(#linear-gradient-2);
      }

      .cls-2 {
        fill: url(#linear-gradient-4);
      }

      .cls-3 {
        fill: url(#linear-gradient-3);
      }

      .cls-4 {
        fill: url(#linear-gradient);
      }

      #cbg_x5F_left1 {
        animation: float1 6s infinite alternate;
      }

      #cbg_x5F_left2 {
        animation: float2 5s infinite alternate;
      }

      #cbg_x5F_left3 {
        animation: float1 5.5s infinite alternate;
      }

      #cbg_x5F_left4 {
        animation: float2 4.5s infinite alternate;
      }

      @keyframes float1 {
        from {
          transform: translateX(-5px);
          transform: translateY(-10px);    
        }
        to {
          transform: translateX(5px);
          transform: translateY(10px); 
        }
      }

      @keyframes float2 {
        from {
          transform: translateX(5px);
          transform: translateY(-10px);    
        }
        to {
          transform: translateX(-5px);
          transform: translateY(10px); 
        }
      }

    </style>
    <linearGradient id="linear-gradient" x1="157.6" y1="1086.8" x2="417.5" y2="715.7" gradientTransform="translate(1216.4 692.3) rotate(-120.8) scale(1 -1)" gradientUnits="userSpaceOnUse">
      <stop offset="0" stop-color="#a97b91"/>
      <stop offset=".2" stop-color="#c58f97"/>
      <stop offset=".3" stop-color="#d89d9b"/>
      <stop offset=".4" stop-color="#dfa29d"/>
      <stop offset=".6" stop-color="#e0a59f"/>
      <stop offset=".7" stop-color="#e4b0a7"/>
      <stop offset=".9" stop-color="#ecc8b6"/>
      <stop offset="1" stop-color="#efcfbb"/>
    </linearGradient>
    <linearGradient id="linear-gradient-2" x1="139.6" y1="946.9" x2="288.5" y2="734.3" gradientTransform="translate(-76.2 23.9) rotate(-5.2)" xlink:href="#linear-gradient"/>
    <linearGradient id="linear-gradient-3" x1="12.6" y1="1088.7" x2="222.7" y2="788.7" gradientTransform="matrix(1,0,0,1,0,0)" xlink:href="#linear-gradient"/>
    <linearGradient id="linear-gradient-4" x1="-6" y1="1036.9" x2="111.1" y2="869.8" gradientTransform="matrix(1,0,0,1,0,0)" xlink:href="#linear-gradient"/>
  </defs>
  <!-- Generator: Adobe Illustrator 28.6.0, SVG Export Plug-In . SVG Version: 1.2.0 Build 709)  -->
  <g>
    <g id="cbg_x5F_left1">
      <path class="cls-4" d="M297.3,680.7c9.3,15.5,14.1,32.4,15,49.3,10.2-.8,20.5,4.1,26,13.5s2.4,4.8,3,7.3c27.7-12.4,60.9-2.4,76.8,24.3.2.3.3.6.5.9,34.8-9.9,73.2,4.2,92.6,36.8,6.6,11.1,10.3,23.2,11.3,35.3,18.7-1.5,37.5,7.5,47.8,24.7,14.4,24.1,6.5,55.4-17.6,69.7-6.4,3.8-13.3,6.1-20.3,6.8l-3.7,17.9s-23.8,112.8-208.1,112.8-192.5,0-192.5,0c-31.1-4.2,2.8-260.7-14.5-289.8-30.2-50.7-13.6-116.4,37.1-146.6,50.7-30.2,116.4-13.6,146.6,37.1Z"/>
    </g>
    <g id="cbg_x5F_left2">
      <path class="cls-1" d="M285.8,761.4c-13.9,1.3-27.1,4.6-39.4,9.6-11.2-13.2-28.7-20.9-47.6-19.2-.3,0-.5,0-.7,0-9.3-40.7-48.5-69.2-92.5-65.2-4.2.4-8.2,1.1-12.1,2-4.7-11.6-16.5-19.3-29.6-18.1-16,1.5-27.8,15.6-26.3,31.6s3.3,12.4,7.4,16.9c-13.1,16.3-20.2,37.4-18.2,59.6,4.3,46.4,46.4,80.4,94.2,76s29.1-6.5,40.9-14.3c3,3.3,6.4,6.3,10.1,8.9-5.6,16.3-8,34-6.3,52.2,6.5,70.6,70.8,122.5,143.6,115.8,72.8-6.7,126.6-69.4,120.1-140-6.5-70.6-70.8-122.5-143.6-115.8Z"/>
    </g>
    <g id="cbg_x5F_left3">
      <path class="cls-3" d="M169.7,832c-2.2,0-4.3.1-6.4.3.8-2.6,1.3-5.4,1.3-8.4,0-15.2-12.3-27.5-27.5-27.5s-2.9.1-4.3.3c-4.7-7.2-11.4-12.9-19.3-16.4,6.2-9.1,9.9-20,9.9-31.8,0-31.1-25.2-56.3-56.3-56.3s-9.5.6-13.9,1.7c-3.3-25.8-24.4-45.7-50-45.7s-2.2,0-3.3.1v431.5h109.8c69.9,0,181.5.1,217.7.1,61.3-19.8,76.6-179-79.8-170,0-43.1-34.9-78-78-78Z"/>
    </g>
    <g id="cbg_x5F_left4">
      <path class="cls-2" d="M136.5,912.3c-2.1-15.3-15.6-27.1-32.1-27.1s-8.5.8-12.3,2.3c-3.3-37.4-35.9-66.8-75.7-66.8s-11.1.6-16.4,1.7v218.6c65.2,26.8,91.3-38.8,91.3-38.8,9.3,7.4,21.2,11.9,34.3,11.9,29.6,0,53.6-23.1,53.6-51.5s-18.3-45.6-42.6-50.4Z"/>
    </g>
  </g>
</svg>