<?xml version="1.0" encoding="UTF-8"?>
<svg xmlns="http://www.w3.org/2000/svg" version="1.1" xmlns:xlink="http://www.w3.org/1999/xlink" viewBox="0 0 1920 1080">
  <defs>
    <style>
      .cls-1 {
        fill: url(#linear-gradient-2);
      }

      .cls-2 {
        fill: url(#linear-gradient-4);
      }

      .cls-3 {
        fill: url(#linear-gradient-3);
      }

      .cls-4 {
        fill: url(#linear-gradient-5);
      }

      .cls-5 {
        fill: url(#linear-gradient);
      }
      
      #cbg_x5F_right1 {
        animation: float1 4s infinite alternate;
      }

      #cbg_x5F_right2 {
        animation: float2 5s infinite alternate;
      }

      #cbg_x5F_right3 {
        animation: float1 6.5s infinite alternate;
      }

      #cbg_x5F_right4 {
        animation: float2 6s infinite alternate;
      }

      #cbg_x5F_right5 {
        animation: float1 6s infinite alternate;
      }

      @keyframes float1 {
        from {
          transform: translateX(-5px);
          transform: translateY(10px);    
        }
        to {
          transform: translateX(5px);
          transform: translateY(-10px); 
        }
      }

      @keyframes float2 {
        from {
          transform: translateX(5px);
          transform: translateY(-10px);    
        }
        to {
          transform: translateX(-5px);
          transform: translateY(10px); 
        }
      }

    </style>
    <linearGradient id="linear-gradient" x1="-377.3" y1="646.2" x2="-683.2" y2="1176.1" gradientTransform="translate(1070.3) rotate(-180) scale(1 -1)" gradientUnits="userSpaceOnUse">
      <stop offset="0" stop-color="#efcfbb"/>
      <stop offset="0" stop-color="#ecc8b6"/>
      <stop offset=".3" stop-color="#e4b0a7"/>
      <stop offset=".4" stop-color="#e0a59f"/>
      <stop offset=".6" stop-color="#dfa29d"/>
      <stop offset=".7" stop-color="#d89d9b"/>
      <stop offset=".8" stop-color="#c58f97"/>
      <stop offset="1" stop-color="#a97b91"/>
    </linearGradient>
    <linearGradient id="linear-gradient-2" x1="-537.6" y1="549.9" x2="-719.1" y2="796.7" gradientTransform="translate(1151.4 47.3) rotate(-173.7) scale(1 -1)" xlink:href="#linear-gradient"/>
    <linearGradient id="linear-gradient-3" x1="1522.7" y1="756.6" x2="1769.6" y2="1023.1" gradientTransform="matrix(1,0,0,1,0,0)" xlink:href="#linear-gradient"/>
    <linearGradient id="linear-gradient-4" x1="-691.5" y1="738.6" x2="-830.5" y2="979.3" xlink:href="#linear-gradient"/>
    <linearGradient id="linear-gradient-5" x1="1796.1" y1="807.1" x2="1890.4" y2="1059.4" gradientUnits="userSpaceOnUse">
      <stop offset=".2" stop-color="#efcfbb"/>
      <stop offset=".2" stop-color="#ecc8b6"/>
      <stop offset=".5" stop-color="#e4b0a7"/>
      <stop offset=".6" stop-color="#e0a59f"/>
      <stop offset=".7" stop-color="#dfa29d"/>
      <stop offset=".7" stop-color="#d89d9b"/>
      <stop offset=".9" stop-color="#c58f97"/>
      <stop offset="1" stop-color="#a97b91"/>
    </linearGradient>
  </defs>
  <!-- Generator: Adobe Illustrator 28.6.0, SVG Export Plug-In . SVG Version: 1.2.0 Build 709)  -->
  <g>
    <g id="cbg_x5F_right5">
      <path class="cls-5" d="M1159,876.8c17.3,0,33.7,3.7,47.9,10.2,14.2-37.7,51-64.5,94-64.5s17.3,1.1,25.3,3.2c0-1.1,0-2.1,0-3.2,0-54.8,44.9-99.2,100.3-99.2,0-59.9,44.9-108.4,100.3-108.4,19.2,0,37.1,5.8,52.4,15.9,2.1-31.7,26.6-56.7,56.5-56.7,19.9,0,37.4,11.1,47.5,27.9,5.2-3.9,11-6.9,17.2-8.8-4.3-8.6-6.8-18.5-6.8-29.1,0-33.8,25.4-61.2,56.6-61.2,14.6,0,28,6,38,15.8,10.3-19.4,30.6-32.6,54.1-32.6,9.2,0,18,2.1,25.9,5.7,5.4-21.6,22.6-37.3,42.9-37.3s6,.4,8.8,1v101.9s0,522.4,0,522.4h-572.2c-14-63.3-30-59.1-46.9-59.1s-32.9-4.2-46.9-11.5l-8.3-5.1c-17.5,25-49.7,41.7-86.7,41.7-55.5,0-100.5-37.9-100.5-84.6,0-46.7,45-84.6,100.5-84.6Z"/>
    </g>
    <g id="cbg_x5F_right4">
      <path class="cls-1" d="M1562.9,711.4c16.9,1.9,32.3,7.8,45.4,16.8,5.2-8.1,14.7-13,24.9-11.9s5,.9,7.2,1.9c6.4-27.8,32.8-47,61.8-43.7.3,0,.7,0,1,.1,12.3-31.7,44.7-52.5,80.1-48.6,12.1,1.3,23.3,5.4,32.9,11.6,9.5-14.9,26.9-23.9,45.6-21.8,26.3,2.9,45.2,26.5,42.3,52.8-.8,7-3,13.4-6.4,19.1l11.3,12.9-103.3,201.9-182.6-20.2c-20.9,20.9-50.7,32.5-82.3,29-55.2-6.1-95-55.8-88.8-111,6.1-55.2,55.8-95,111-88.8Z"/>
    </g>
    <g id="cbg_x5F_right3">
      <path class="cls-3" d="M1597,801.6c14.7,5.2,28,12.4,39.9,21.2,15.7-11.2,36.7-14.7,56.7-7.6.3,0,.5.2.8.3,21.2-41.4,71.4-61.4,117.7-45,4.4,1.6,8.6,3.4,12.6,5.5,8.2-11.3,23.2-16.3,37-11.4,16.9,6,25.7,24.5,19.7,41.3-2.4,6.9-7,12.4-12.7,16.2,9.7,21.3,11.6,45.9,3.3,69.3-17.3,48.9-72.2,74-122.6,56.1-16-5.7-29.6-15-40.2-26.7-4.1,2.8-8.6,5.1-13.4,6.8,1.6,19.2-.7,38.9-7.5,58.1-26.4,74.5-110,112.8-186.8,85.6-76.8-27.2-117.6-109.6-91.2-184.1,26.4-74.5,110-112.8,186.8-85.6Z"/>
    </g>
    <g id="cbg_x5F_right2">
      <path class="cls-2" d="M1750.3,840.4c2.2,0,4.3.1,6.4.3-.8-2.6-1.3-5.4-1.3-8.4,0-15.2,12.3-27.5,27.5-27.5s2.9.1,4.3.3c4.7-7.2,11.4-12.9,19.3-16.4-6.2-9.1-9.9-20-9.9-31.8,0-31.1,25.2-56.3,56.3-56.3,4.8,0,9.5.6,13.9,1.7,3.3-25.8,24.4-45.7,50-45.7s2.2,0,3.3.1v88.8s0,16.5,0,16.5v206.1s-109.8,0-109.8,0c-14.3,17.1-35.8,28.1-59.9,28.1-43.1,0-78-34.9-78-78s34.9-78,78-78Z"/>
    </g>
    <g id="cbg_x5F_right1">
      <path class="cls-4" d="M1807.7,956.4c1.7-12.8,13.1-22.8,27-22.8s7.1.7,10.3,1.9c2.8-31.4,30.2-56.1,63.6-56.1,4.7,0,9.3.5,13.8,1.5v119.9s0,38.4,0,63.8c-56,14.2-76.7-32.6-76.7-32.6-7.8,6.3-17.8,10-28.8,10-24.9,0-45-19.4-45-43.3,0-20.9,15.4-38.3,35.8-42.4Z"/>
    </g>
  </g>
</svg>