<?xml version="1.0" encoding="UTF-8"?>
<svg xmlns="http://www.w3.org/2000/svg" version="1.1" xmlns:xlink="http://www.w3.org/1999/xlink" viewBox="0 0 1920 1080">
  <defs>
    <style>
      .cls-1 {
        fill: url(#linear-gradient);
      }
      
      #cbg_x5F_right1 {
        animation: float 6s infinite alternate;
      }

      @keyframes float {
        from {
          transform: translateX(-5px);
          transform: translateY(-6px);    
        }
        to {
          transform: translateX(3px);
          transform: translateY(18px); 
        }
      }

    </style>
    <linearGradient id="linear-gradient" x1="1403.7" y1="480" x2="1784.8" y2="1140.2" gradientUnits="userSpaceOnUse">
      <stop offset="0" stop-color="#efcfbb"/>
      <stop offset=".1" stop-color="#ecc8b6"/>
      <stop offset=".3" stop-color="#e4b0a7"/>
      <stop offset=".4" stop-color="#e0a59f"/>
      <stop offset=".6" stop-color="#dfa29d"/>
      <stop offset=".7" stop-color="#d89d9b"/>
      <stop offset=".8" stop-color="#c58f97"/>
      <stop offset="1" stop-color="#a97b91"/>
    </linearGradient>
  </defs>
  <!-- Generator: Adobe Illustrator 28.6.0, SVG Export Plug-In . SVG Version: 1.2.0 Build 709)  -->
  <g>
    <g id="cbg_x5F_right1">
      <path class="cls-1" d="M1920,112.1h-18.7c0,1.6.2,3.2.4,4.8,0,.2,0,.4,0,.6-6.2,6.2-9.5,15.3-8.1,24.9,1,7.3,4.5,13.5,9.5,18-18.1,4.7-31.2,20.7-33.1,39.7-3.6-.6-7.3-.6-11.1-.1-21.4,3-36.3,23.4-33.2,45.7.2,1.4.4,2.7.8,4-11.5,2.8-21.1,9.7-27.7,18.9-7.9-3.2-16.8-4.4-25.8-3.2-27.8,3.8-47.2,29.5-43.4,57.3,1.8,13.3,8.7,24.6,18.3,32.5l-8.6,14.2-17.7,11.2c-10.2-7.3-23.1-10.9-36.5-9-9.8,1.3-18.5,5.4-25.5,11.3-6.9-2.2-14.4-2.9-22-1.8-27.8,3.8-47.2,29.5-43.4,57.3.5,3.3,1.2,6.5,2.3,9.6-1,0-2,0-3,0-8,1.1-13.6,8.8-12.4,17.1.1,1,.4,1.9.7,2.8-1.5,0-2.9.2-4.4.4-31,4.3-53.1,31.6-51.5,62.3-10.3-4.4-21.8-6.2-33.7-4.5-34.8,4.8-59.1,36.9-54.3,71.7.3,1.8.6,3.6,1,5.4-17.3,7.5-28.2,25.8-25.5,45.4.3,2.2.8,4.3,1.3,6.3-3.8.1-7.6.4-11.4.9-30.8,4.3-56.5,21.8-72.1,46.1-20.5-14.5-46.4-21.6-73.2-17.9-50.3,7-86.9,49.3-88.3,98.5-21.4-18.1-50.2-27.4-80.1-23.2-34.7,4.8-62.8,26.4-77.5,55.5-46.9,14.6-77.8,61.4-70.8,111.7,7.7,56,59.4,95.1,115.4,87.4,34.7-4.8,62.8-26.4,77.5-55.5,30-9.3,87.2,47.6,98.4,19.5l64.9-16.5c3.2-.1,113.8,22.1,117.1,21.6,3.2-.4,218.3,17.3,221.4,16.5l284-17.8V112.1Z"/>
    </g>
  </g>
</svg>