<?xml version="1.0" encoding="UTF-8"?>
<svg xmlns="http://www.w3.org/2000/svg" version="1.1" xmlns:xlink="http://www.w3.org/1999/xlink" viewBox="0 0 1920 1080">
  <defs>
    <style>
      .cls-1 {
        fill: url(#linear-gradient-2);
      }

      .cls-2 {
        fill: url(#linear-gradient);
      }

      #cbg_x5F_left1 {
        animation: float1 6s infinite alternate;
      }

      #cbg_x5F_left2 {
        animation: float2 5s infinite alternate;
      }

      @keyframes float1 {
        from {
          transform: translateX(-500px);
          transform: translateY(-6px);    
        }
        to {
          transform: translateX(3px);
          transform: translateY(18px); 
        }
      }

      @keyframes float2 {
        from {
          transform: translateX(-520px);
          transform: translateY(-8px);    
        }
        to {
          transform: translateX(3px);
          transform: translateY(12px); 
        }
      }

    </style>
    <linearGradient id="linear-gradient" x1="203" y1="1047.3" x2="591.3" y2="492.8" gradientUnits="userSpaceOnUse">
      <stop offset="0" stop-color="#a97b91"/>
      <stop offset=".2" stop-color="#c58f97"/>
      <stop offset=".3" stop-color="#d89d9b"/>
      <stop offset=".4" stop-color="#dfa29d"/>
      <stop offset=".6" stop-color="#e0a59f"/>
      <stop offset=".7" stop-color="#e4b0a7"/>
      <stop offset=".9" stop-color="#ecc8b6"/>
      <stop offset="1" stop-color="#efcfbb"/>
    </linearGradient>
    <linearGradient id="linear-gradient-2" x1="110.5" y1="1157.2" x2="477.7" y2="632.7" xlink:href="#linear-gradient"/>
  </defs>
  <!-- Generator: Adobe Illustrator 28.6.0, SVG Export Plug-In . SVG Version: 1.2.0 Build 709)  -->
  <g>
    <g id="cbg_x5F_left1">
      <path class="cls-2" d="M1007.9,796.6c-18.5-26.8-49.3-44.3-84.3-44.3s-57.4,13.1-76.2,34c-8.1-48.5-50.2-85.4-101-85.4s-51.8,10.5-70.1,27.8c-18.8-21.9-46.6-35.8-77.7-35.8s-7.6.2-11.4.6c.3-2.1.5-4.2.5-6.4,0-19.8-13.3-36.4-31.4-41.5.2-1.8.2-3.6.2-5.5,0-35.1-28.5-63.6-63.6-63.6s-23.2,3.3-32.8,9.1c-2.6-30.6-28.2-54.6-59.5-54.6s-3,0-4.4.2c.2-.9.3-1.9.3-2.9,0-8.4-6.6-15.2-14.7-15.2s-2,.1-3,.3c.6-3.2,1-6.4,1-9.8,0-28.1-22.7-50.8-50.8-50.8s-15,1.7-21.6,4.8c-7.8-4.8-17-7.7-26.8-7.7s-25.9,5.3-35,14l-19-8.6-10.5-12.9c8.5-9.1,13.7-21.3,13.7-34.7,0-28.1-22.7-50.8-50.8-50.8s-17.7,2.4-25.1,6.7c-7.8-8.3-18.3-13.8-30.1-15,.1-1.4.2-2.7.2-4.1,0-22.5-17.5-40.7-39.2-40.7s-7.5.6-11,1.6c-4.5-18.5-19.6-32.5-38.2-34.7,4.3-5.1,6.9-11.8,6.9-19.2s-4.5-18.2-11.5-23.5c0-.2,0-.4,0-.6,0-20.7-13.1-38.3-31.1-44.3v722h736.8c3.2.3,6.4.5,9.6.5s6.5-.2,9.6-.5h78.4c14.9,26.3,41.2,45.3,72.2,50.5,18.5,26.8,49.3,44.3,84.3,44.3,56.5,0,102.4-45.8,102.4-102.4s-37-92.9-85.5-101Z"/>
    </g>
    <g id="cbg_x5F_left2">
      <path class="cls-1" d="M761,856.5c-17.3,0-33.7,3.7-47.9,10.2-14.2-37.7-51-64.5-94-64.5s-17.3,1.1-25.3,3.2c0-1.1,0-2.1,0-3.2,0-54.8-44.9-99.2-100.3-99.2,0-59.9-44.9-108.4-100.3-108.4s-37.1,5.8-52.4,15.9c-2.1-31.7-26.6-56.7-56.5-56.7s-37.4,11.1-47.5,27.9c-5.2-3.9-11-6.9-17.2-8.8,4.3-8.6,6.8-18.5,6.8-29.1,0-33.8-25.4-61.2-56.6-61.2s-28,6-38,15.8c-10.3-19.4-30.6-32.6-54.1-32.6s-18,2.1-25.9,5.7c-5.4-21.6-22.6-37.3-42.9-37.3s-6,.4-8.8,1v644.5h572.2c25,0,30-79.3,46.9-79.3s32.9-4.2,46.9-11.5l8.3-5.1c17.5,25,49.7,41.7,86.7,41.7,55.5,0,100.5-37.9,100.5-84.6s-45-84.6-100.5-84.6Z"/>
    </g>
  </g>
</svg>