<?xml version="1.0" encoding="UTF-8"?>
<svg xmlns="http://www.w3.org/2000/svg" version="1.1" xmlns:xlink="http://www.w3.org/1999/xlink" viewBox="0 0 1920 1080">
  <defs>
    <style>
      .cls-1 {
        fill: url(#linear-gradient-2);
      }

      .cls-2 {
        fill: url(#linear-gradient-4);
      }

      .cls-3 {
        fill: url(#linear-gradient-3);
      }

      .cls-4 {
        fill: url(#linear-gradient-5);
      }

      .cls-5 {
        fill: url(#linear-gradient);
      }
    </style>
    <linearGradient id="linear-gradient" x1="-377.3" y1="534.16" x2="-652.65" y2="1011.08" gradientTransform="translate(1070.31) rotate(-180) scale(1 -1)" gradientUnits="userSpaceOnUse">
      <stop offset="0" stop-color="#efcfbb"/>
      <stop offset=".06" stop-color="#ecc8b6"/>
      <stop offset=".29" stop-color="#e4b0a7"/>
      <stop offset=".42" stop-color="#e0a59f"/>
      <stop offset=".57" stop-color="#dfa29d"/>
      <stop offset=".68" stop-color="#d89d9b"/>
      <stop offset=".83" stop-color="#c58f97"/>
      <stop offset="1" stop-color="#a97b91"/>
    </linearGradient>
    <linearGradient id="linear-gradient-2" x1="-541.85" y1="416.71" x2="-749.07" y2="698.55" gradientTransform="translate(1151.35 47.25) rotate(-173.67) scale(1 -1)" xlink:href="#linear-gradient"/>
    <linearGradient id="linear-gradient-3" x1="-453.16" y1="636.54" x2="-768.18" y2="905.38" gradientTransform="translate(1351.18 -127.7) rotate(-160.48) scale(1 -1)" xlink:href="#linear-gradient"/>
    <linearGradient id="linear-gradient-4" x1="-691.51" y1="571.49" x2="-830.53" y2="812.27" xlink:href="#linear-gradient"/>
    <linearGradient id="linear-gradient-5" x1="-756.79" y1="699.81" x2="-844.84" y2="852.31" xlink:href="#linear-gradient"/>
  </defs>
  <!-- Generator: Adobe Illustrator 28.6.0, SVG Export Plug-In . SVG Version: 1.2.0 Build 709)  -->
  <g>
    <g id="cgbt_x5F_left1">
      <path class="cls-5" d="M1158.98,764.78c17.34,0,33.66,3.69,47.9,10.2,14.23-37.66,50.96-64.48,94.03-64.48,8.76,0,17.25,1.11,25.35,3.19-.03-1.06-.06-2.13-.06-3.19,0-54.76,44.93-99.16,100.34-99.16,0-59.87,44.93-108.4,100.34-108.4,19.19,0,37.12,5.82,52.36,15.91,2.14-31.68,26.59-56.67,56.46-56.67,19.9,0,37.39,11.1,47.49,27.87,5.18-3.92,10.99-6.93,17.24-8.82-4.33-8.64-6.78-18.54-6.78-29.05,0-33.79,25.36-61.18,56.63-61.18,14.63,0,27.97,6,38.02,15.84,10.26-19.4,30.64-32.63,54.11-32.63,9.25,0,18.01,2.06,25.87,5.74,5.44-21.58,22.57-37.35,42.89-37.35,3.02,0,5.97.35,8.82,1.02v101.93s0,451.78,0,451.78h-572.18c-14,7.33-29.97,11.49-46.91,11.49s-32.91-4.16-46.91-11.49l-8.33-5.12c-17.47,24.97-49.75,41.73-86.68,41.73-55.52,0-100.53-37.87-100.53-84.58,0-46.71,45.01-84.58,100.53-84.58Z"/>
    </g>
    <g id="cgbt_x5F_left2">
      <path class="cls-1" d="M1583.05,578.43c16.55,1.83,31.68,7.67,44.55,16.43,5.09-7.94,14.39-12.76,24.39-11.65,2.5.28,4.87.91,7.08,1.84,6.29-27.24,32.12-46.05,60.58-42.9.33.04.65.09.98.13,12.05-31.1,43.86-51.47,78.57-47.63,11.88,1.32,22.81,5.34,32.24,11.37,9.31-14.57,26.35-23.41,44.7-21.38,25.74,2.85,44.3,26.03,41.44,51.78-.76,6.84-2.96,13.17-6.26,18.73l8.66,3.21-.16,207.43-277.78-19.85c-20.45,20.52-49.7,31.88-80.73,28.44-54.11-6-93.12-54.73-87.12-108.84,6-54.11,54.73-93.12,108.84-87.12Z"/>
    </g>
    <g id="cgbt_x5F_left3">
      <path class="cls-3" d="M1520.84,694.9c10.94,3.88,20.89,9.26,29.7,15.82,11.7-8.32,27.37-10.95,42.22-5.69.2.07.39.15.58.22,15.8-30.84,53.17-45.75,87.72-33.5,3.26,1.16,6.38,2.53,9.36,4.07,6.12-8.41,17.25-12.18,27.55-8.53,12.56,4.45,19.13,18.24,14.67,30.8-1.82,5.14,173.72,11.4,187.04,12.06,0,17.56-.21,39.69,0,58.2.53,46.76.19,105.71.19,128.97-14.1,0-258.12,0-266.22,0-5.9,0-16.94,0-26.18,0-8.29,0-23.85,0-39.03,0-38.04,0-81.67,18.78-138.86-1.49-57.2-20.28-87.62-81.7-67.94-137.18,19.67-55.48,81.99-84.02,139.18-63.75Z"/>
    </g>
    <g id="cgbt_x5F_left4">
      <path class="cls-2" d="M1750.29,673.34c2.15,0,4.28.11,6.39.28-.84-2.63-1.29-5.44-1.29-8.35,0-15.2,12.33-27.53,27.53-27.53,1.46,0,2.89.12,4.28.33,4.68-7.18,11.36-12.92,19.26-16.44-6.23-9.05-9.88-20.02-9.88-31.84,0-31.07,25.19-56.25,56.25-56.25,4.8,0,9.46.61,13.91,1.74,3.32-25.8,24.43-45.7,50-45.7,1.1,0,2.19.05,3.27.12v88.85s0,16.54,0,16.54v206.13s-109.82,0-109.82,0c-14.3,17.14-35.82,28.06-59.89,28.06-43.06,0-77.97-34.91-77.97-77.97s34.91-77.97,77.97-77.97Z"/>
    </g>
    <g id="cgbt_x5F_left5">
      <path class="cls-4" d="M1805.31,741.29c1.73-12.84,13.15-22.76,26.98-22.76,3.65,0,7.13.7,10.31,1.95,2.79-31.43,30.2-56.11,63.62-56.11,4.74,0,9.34.51,13.79,1.45v119.89s0,63.81,0,63.81l-76.72-32.61c-7.8,6.25-17.84,10.01-28.79,10.01-24.86,0-45.01-19.37-45.01-43.27,0-20.87,15.38-38.29,35.84-42.37Z"/>
    </g>
  </g>
</svg>