<?xml version="1.0" encoding="UTF-8"?>
<svg xmlns="http://www.w3.org/2000/svg" version="1.1" xmlns:xlink="http://www.w3.org/1999/xlink" viewBox="0 0 1920 1080">
  <defs>
    <style>
      .cls-1 {
        fill: url(#linear-gradient-2);
      }

      .cls-2 {
        fill: url(#linear-gradient-4);
      }

      .cls-3 {
        fill: url(#linear-gradient-3);
      }

      .cls-4 {
        fill: url(#linear-gradient);
      }
    </style>
    <linearGradient id="linear-gradient" x1="278.85" y1="890.36" x2="448.9" y2="647.5" gradientTransform="translate(-81.04 47.25) rotate(-6.33)" gradientUnits="userSpaceOnUse">
      <stop offset="0" stop-color="#a97b91"/>
      <stop offset=".17" stop-color="#c58f97"/>
      <stop offset=".32" stop-color="#d89d9b"/>
      <stop offset=".43" stop-color="#dfa29d"/>
      <stop offset=".58" stop-color="#e0a59f"/>
      <stop offset=".71" stop-color="#e4b0a7"/>
      <stop offset=".94" stop-color="#ecc8b6"/>
      <stop offset="1" stop-color="#efcfbb"/>
    </linearGradient>
    <linearGradient id="linear-gradient-2" x1="158.28" y1="836.61" x2="281.82" y2="660.17" gradientTransform="matrix(1,0,0,1,0,0)" xlink:href="#linear-gradient"/>
    <linearGradient id="linear-gradient-3" x1="3.97" y1="850.59" x2="157.67" y2="631.08" gradientTransform="matrix(1,0,0,1,0,0)" xlink:href="#linear-gradient"/>
    <linearGradient id="linear-gradient-4" x1="-5.02" y1="846" x2="93.35" y2="705.51" gradientTransform="matrix(1,0,0,1,0,0)" xlink:href="#linear-gradient"/>
  </defs>
  <!-- Generator: Adobe Illustrator 28.6.0, SVG Export Plug-In . SVG Version: 1.2.0 Build 709)  -->
  <g>
    <g id="cgbt_x5F_left4">
      <path class="cls-4" d="M501.18,697.07c-16.55,1.83-31.68,7.67-44.55,16.43-5.09-7.94-14.39-12.76-24.39-11.65-2.5.28-4.87.91-7.08,1.84-6.29-27.24-32.12-46.05-60.58-42.9-.33.04-.65.09-.98.13-12.05-31.1-43.86-51.47-78.57-47.63-11.88,1.32-22.81,5.34-32.24,11.37-9.31-14.57-26.35-23.41-44.7-21.38-25.74,2.85-44.3,26.03-41.44,51.78.76,6.84,2.96,13.17,6.26,18.73l-11.09,12.65,101.26,198,179.11-19.85c20.45,20.52,49.7,31.88,80.73,28.44,54.11-6,93.12-54.73,87.12-108.84-6-54.11-54.73-93.12-108.84-87.12Z"/>
    </g>
    <g id="cgbt_x5F_left3">
      <path class="cls-1" d="M285.57,687.68c-11.6,0-22.78,1.75-33.28,4.98-8.24-11.75-22.14-19.47-37.89-19.47-.21,0-.41.01-.62.02-4.58-34.35-34.83-60.89-71.49-60.89-3.46,0-6.86.25-10.19.71-2.96-9.97-12.19-17.24-23.12-17.24-13.32,0-24.12,10.8-24.12,24.12,0,5.45,1.81,10.48,4.86,14.51-12.11,12.51-19.54,29.34-19.54,47.85,0,38.63,32.28,69.95,72.11,69.95,12.65,0,24.54-3.17,34.88-8.72,2.22,3,4.8,5.71,7.7,8.09-5.9,13.07-9.17,27.51-9.17,42.68,0,58.87,49.2,106.59,109.88,106.59s109.88-47.72,109.88-106.59-49.2-106.59-109.88-106.59Z"/>
    </g>
    <g id="cgbt_x5F_left2">
      <path class="cls-3" d="M169.71,719.94c-2.15,0-4.28.11-6.39.28.84-2.63,1.29-5.44,1.29-8.35,0-15.2-12.33-27.53-27.53-27.53-1.46,0-2.89.12-4.28.33-4.68-7.18-11.36-12.92-19.26-16.44,6.23-9.05,9.88-20.02,9.88-31.84,0-31.07-25.19-56.25-56.25-56.25-4.8,0-9.46.61-13.91,1.74-3.32-25.8-24.43-45.7-50-45.7-1.1,0-2.19.05-3.27.12v311.51h109.82c14.3,17.14,35.82,28.06,59.89,28.06,43.06,0,77.97-34.91,77.97-77.97s-34.91-77.97-77.97-77.97Z"/>
    </g>
    <g id="cgbt_x5F_left1">
      <path class="cls-2" d="M114.69,741.29c-1.73-12.84-13.15-22.76-26.98-22.76-3.65,0-7.13.7-10.31,1.95-2.79-31.43-30.2-56.11-63.62-56.11-4.74,0-9.34.51-13.79,1.45v183.7l76.72-32.61c7.8,6.25,17.84,10.01,28.79,10.01,24.86,0,45.01-19.37,45.01-43.27,0-20.87-15.38-38.29-35.84-42.37Z"/>
    </g>
  </g>
</svg>