<?xml version="1.0" encoding="UTF-8"?>
<svg id="Layer_2" data-name="Layer 2" xmlns="http://www.w3.org/2000/svg" viewBox="0 0 750 750">
  <defs>
    <style>
      .cls-1 {
        fill: #000;
        stroke-width: 0px;
      }
    </style>
  </defs>
  <g id="Layer_1-2" data-name="Layer 1">
    <path class="cls-1" d="M375,0C167.91,0,0,167.91,0,375s167.91,375,375,375,375-167.91,375-375S582.09,0,375,0ZM548.36,482.78h-62.48v-77.73l-144.75,86.41c-1.35.8-3.07.85-4.46.02-1.35-.76-2.22-2.22-2.22-3.85v-71.47l-126.11,75.29c-1.35.8-3.07.85-4.46.02-1.35-.76-2.22-2.22-2.22-3.85v-225.31c0-1.58.87-3.07,2.22-3.85,1.4-.8,3.11-.76,4.46.05l126.11,75.29v-71.49c0-1.58.87-3.07,2.22-3.85,1.4-.8,3.11-.76,4.46.05l144.75,86.41v-80.92h62.48v218.76Z"/>
  </g>
</svg>