<?xml version="1.0" encoding="UTF-8"?>
<svg id="Layer_2" data-name="Layer 2" xmlns="http://www.w3.org/2000/svg" viewBox="0 0 750 750">
  <defs>
    <style>
      .cls-1 {
        fill: #000;
      }

      .cls-1, .cls-2 {
        stroke-width: 0px;
      }

      .cls-2 {
        fill: #fff;
      }
    </style>
  </defs>
  <g id="Layer_1-2" data-name="Layer 1">
    <g>
      <circle class="cls-1" cx="375" cy="375" r="375"/>
      <path class="cls-2" d="M552.38,587l-47.59-47.59c-15.86,10.82-32.81,20.19-50.84,28.12-18.75,7.93-36.41,12.98-53,15.14v-51.92c22.35-3.61,44.35-13.34,65.98-29.2l-109.24-109.24v190.36l-121.14-121.14h-69.22v-173.06h86.53l-90.86-90.86,34.61-34.61,389.38,389.38-34.61,34.61ZM357.69,167.33v86.53l-42.18-45.43,42.18-41.1ZM530.75,375c0-38.22-12.62-72.11-37.86-101.67-25.24-30.29-55.88-48.31-91.94-54.08v-51.92c33.17,3.61,63.82,15.5,91.94,35.69,27.4,19.47,49.39,44.71,65.98,75.71,15.86,30.29,23.8,62.37,23.8,96.26,0,13.7-1.8,29.56-5.41,47.59-4.33,18.03-9.37,32.81-15.14,44.35l-40.02-40.02c5.77-18.75,8.65-36.05,8.65-51.92ZM405.29,275.49c21.63,6.49,39.3,18.75,53,36.77,13.7,18.03,20.55,38.94,20.55,62.73v4.33l-73.55-73.55v-30.29Z"/>
    </g>
  </g>
</svg>