<?xml version="1.0" encoding="UTF-8"?>
<svg xmlns="http://www.w3.org/2000/svg" xmlns:xlink="http://www.w3.org/1999/xlink" viewBox="0 0 1920 1080">
  <defs>
    <style>
      .cls-1 {
        fill: url(#radial-gradient);
      }

      .cls-2 {
        fill: #cc5352;
      }

      .cls-3 {
        isolation: isolate;
      }

      .cls-4 {
        mix-blend-mode: multiply;
        opacity: .15;
      }

      .cls-5 {
        fill: url(#radial-gradient-2);
      }

      #Layer_2 {
        animation: float1 8s infinite alternate;
      }

      @keyframes float1 {
        from {
          transform: translate(0px, -10px); 
        }
        to {
          transform: translate(-80px, 10px); 
        }
      }

    </style>
    <radialGradient id="radial-gradient" cx="288.52" cy="624.86" fx="255.12" fy="624.86" r="187.61" gradientTransform="translate(76.67 -28.36) rotate(7.76)" gradientUnits="userSpaceOnUse">
      <stop offset="0" stop-color="#b94e4c"/>
      <stop offset=".76" stop-color="#cc5452"/>
      <stop offset=".82" stop-color="#cc5653"/>
      <stop offset=".86" stop-color="#cf5e5a"/>
      <stop offset=".89" stop-color="#d36c65"/>
      <stop offset=".92" stop-color="#d88075"/>
      <stop offset=".94" stop-color="#e09a89"/>
      <stop offset=".96" stop-color="#e9baa2"/>
      <stop offset=".99" stop-color="#f4dfbf"/>
      <stop offset=".99" stop-color="#f6e5c4"/>
    </radialGradient>
    <radialGradient id="radial-gradient-2" cx="285.97" cy="623.37" fx="222.77" fy="629.77" r="355.03" gradientTransform="translate(-73.49 641.74) rotate(-37.39) scale(1 .32)" gradientUnits="userSpaceOnUse">
      <stop offset="0" stop-color="#b94e4c"/>
      <stop offset=".81" stop-color="#cc5452"/>
      <stop offset=".86" stop-color="#cc5653"/>
      <stop offset=".89" stop-color="#cf5e5a"/>
      <stop offset=".91" stop-color="#d36c65"/>
      <stop offset=".93" stop-color="#d88075"/>
      <stop offset=".95" stop-color="#e09a89"/>
      <stop offset=".97" stop-color="#e9baa2"/>
      <stop offset=".99" stop-color="#f4dfbf"/>
      <stop offset=".99" stop-color="#f6e5c4"/>
    </radialGradient>
  </defs>
  <g class="cls-3">
    <g id="Layer_2">
      <g>
        <circle class="cls-1" cx="285.04" cy="623.03" r="178.43"/>
        <g class="cls-4">
          <path class="cls-2" d="M423.93,511.04c4.22,34.88-84.9,119.28-211.2,197.76-20.04,12.45-39.9,24.06-59.28,34.72.96,1.05,1.94,2.1,2.93,3.13,44.06-22.81,96.1-55.99,149.32-96.45,43.81-33.3,82.67-67.16,113.88-98.37,7.3-9.84,12.36-18.69,14.9-26.29-3.27-5.01-6.8-9.84-10.55-14.5Z"/>
          <path class="cls-2" d="M411.13,496.8c-.28-.01-.55-.03-.84-.04.41.12.79.25,1.18.39-.12-.12-.23-.23-.35-.35Z"/>
        </g>
        <path class="cls-5" d="M463.19,612.6c-31.74,32.52-69.45,65.89-111.63,97.95-42.17,32.06-84.41,59.47-124.24,81.35-104.69,57.51-192.76,76.79-219.38,41.77s15.51-114.72,98.94-200.22c.36,6.19,1.03,12.3,2.01,18.34-55.61,56.66-84.95,103.81-71.36,121.69,12.44,16.36,58.03,4.66,118.85-26.83,44.05-22.8,96.1-56.01,149.31-96.46,53.21-40.45,99.13-81.71,132.89-118.06,46.61-50.18,70.08-90.98,57.65-107.34-13.59-17.89-66.87-2.22-136.35,36.2-5.55-2.56-11.27-4.85-17.13-6.85,104.7-57.51,192.76-76.79,219.39-41.76,26.62,35.01-15.52,114.72-98.94,200.2Z"/>
      </g>
    </g>
  </g>
</svg>