<?xml version="1.0" encoding="UTF-8"?>
<svg id="Layer_2" data-name="Layer 2" xmlns="http://www.w3.org/2000/svg" viewBox="0 0 750 750">
  <defs>
    <style>
      .cls-1 {
        fill: #000;
      }

      .cls-1, .cls-2 {
        stroke-width: 0px;
      }

      .cls-2 {
        fill: #fff;
      }
    </style>
  </defs>
  <g id="Layer_1-2" data-name="Layer 1">
    <g>
      <g>
        <path class="cls-1" d="M375,749.5c-50.56,0-99.6-9.9-145.77-29.43-44.6-18.86-84.65-45.87-119.04-80.26s-61.4-74.44-80.26-119.04C10.4,474.6.5,425.56.5,375s9.9-99.6,29.43-145.77c18.86-44.6,45.87-84.65,80.26-119.04s74.44-61.4,119.04-80.26C275.4,10.4,324.44.5,375,.5s99.6,9.9,145.77,29.43c44.59,18.86,84.65,45.87,119.04,80.26s61.4,74.44,80.26,119.04c19.53,46.17,29.43,95.21,29.43,145.77s-9.9,99.6-29.43,145.77c-18.86,44.6-45.87,84.65-80.26,119.04s-74.44,61.4-119.04,80.26c-46.17,19.53-95.21,29.43-145.77,29.43Z"/>
        <path class="cls-1" d="M375,1c50.49,0,99.47,9.89,145.58,29.39,44.54,18.84,84.53,45.8,118.88,80.15,34.35,34.35,61.31,74.34,80.15,118.88,19.5,46.11,29.39,95.09,29.39,145.58s-9.89,99.47-29.39,145.58c-18.84,44.54-45.8,84.53-80.15,118.88-34.35,34.35-74.35,61.31-118.88,80.15-46.11,19.5-95.09,29.39-145.58,29.39s-99.47-9.89-145.58-29.39c-44.54-18.84-84.53-45.8-118.88-80.15-34.35-34.35-61.31-74.34-80.15-118.88C10.89,474.47,1,425.49,1,375s9.89-99.47,29.39-145.58c18.84-44.54,45.8-84.53,80.15-118.88,34.35-34.35,74.35-61.31,118.88-80.15C275.53,10.89,324.51,1,375,1M375,0C167.89,0,0,167.89,0,375s167.89,375,375,375,375-167.89,375-375S582.11,0,375,0h0Z"/>
      </g>
      <path class="cls-2" d="M361.96,138.85c-120.9,0-218.96,98.06-218.96,218.96,0,70.31,33.17,132.85,84.71,172.85l-46.24,44.93,151.77,1.32,3.16-151.77-47.96,46.51c-37.33-24.14-62.05-66.05-62.05-113.83,0-74.89,60.68-135.57,135.57-135.57,3.29,0,6.52.17,9.75.4v-83.53c-3.22-.14-6.5-.26-9.75-.26ZM416.76,173.1l-3.16,151.77,47.96-46.51c37.33,24.14,62.05,66.05,62.05,113.83,0,74.89-60.68,135.57-135.57,135.57-3.29,0-6.52-.17-9.75-.4v83.53c3.22.14,6.5.26,9.75.26,120.9,0,218.96-98.06,218.96-218.96,0-70.31-33.17-132.85-84.71-172.85l46.24-44.93-151.77-1.32h0Z"/>
    </g>
  </g>
</svg>