<?xml version="1.0" encoding="UTF-8"?>
<svg id="Layer_2" data-name="Layer 2" xmlns="http://www.w3.org/2000/svg" viewBox="0 0 750 750">
  <defs>
    <style>
      .cls-1 {
        fill: #000;
        stroke-width: 0px;
      }
    </style>
  </defs>
  <g id="Layer_1-2" data-name="Layer 1">
    <g id="Layer_1-2" data-name="Layer 1-2">
      <path class="cls-1" d="M0,375c0,207.09,167.91,375,375,375s375-167.91,375-375C750,167.91,582.09,0,375,0S0,167.91,0,375ZM201.64,482.76v-218.76h62.48v80.92s144.75-86.41,144.75-86.41c1.35-.81,3.06-.85,4.46-.05,1.35.78,2.22,2.27,2.22,3.85v71.49s126.11-75.29,126.11-75.29c1.35-.81,3.06-.85,4.46-.05,1.35.78,2.22,2.27,2.22,3.85v225.31c0,1.63-.87,3.09-2.22,3.85-1.39.83-3.11.78-4.46-.02l-126.11-75.29v71.47c0,1.63-.87,3.09-2.22,3.85-1.39.83-3.11.78-4.46-.02l-144.75-86.41v77.73h-62.48v-.02Z"/>
    </g>
  </g>
</svg>